<?xml version="1.0" encoding="UTF-8" standalone="no"?>
<!DOCTYPE svg PUBLIC "-//W3C//DTD SVG 1.1//EN" "http://www.w3.org/Graphics/SVG/1.1/DTD/svg11.dtd">
<svg width="100%" height="100%" viewBox="0 0 1920 1080" version="1.1" xmlns="http://www.w3.org/2000/svg" xmlns:xlink="http://www.w3.org/1999/xlink" xml:space="preserve" xmlns:serif="http://www.serif.com/" style="fill-rule:evenodd;clip-rule:evenodd;stroke-linecap:square;stroke-miterlimit:5;">
    <rect x="0" y="0" width="1920" height="1080" style="fill:rgb(252,211,77);"/>
    <g transform="matrix(0.278595,0,0,0.278595,692.549,779.117)">
        <path d="M1097.7,870.735C1097.44,867.053 1096.83,863.37 1095.23,859.687C1100.64,858.654 1128.57,853.905 1135.44,853.091C1134.67,842.649 1134.78,833.564 1136.42,826.869C1177.63,822.996 1217.91,818.375 1256.5,812.411C1260.49,805.463 1263.26,797.973 1264.84,789.955L4405.86,789.955L4405.86,1080L-2485.86,1080L-2485.86,789.955L825.034,791.621C829.877,797.63 835.731,801.487 842.287,803.855C821.875,809.194 807.09,815.011 799.313,821.421C794.923,819.962 791.549,819.097 788.804,818.598C788.114,821.245 787.908,823.753 788.177,826.126C785.46,826.483 782.975,827.595 780.806,829.733C781.944,831.902 783.334,833.15 784.883,833.811C782.508,835.886 780.772,838.305 780.178,841.34C781.83,843.458 783.781,844.826 785.981,845.574C785.117,847.188 784.493,848.862 784.727,850.75C787.886,851.383 790.958,850.977 793.98,849.966C816.408,856.716 838.836,859.579 861.264,859.219C881.734,905.342 850.863,945.354 909.728,953.999C911.178,969.736 917.182,978.733 929.088,978.996C932.903,976.884 933.825,967.952 931.786,952.039C959.903,924.2 992.311,955.069 1025.4,954.244C1032.25,971.322 1039.98,980.422 1048.92,978.26C1055.87,973.209 1055.61,961.622 1049.17,944.442C1056.49,936.816 1060.85,925.422 1061.44,911.758L1061.45,911.827L1071.83,914.998C1070.11,905.6 1068.38,896.178 1071.43,894.805C1082.84,895.525 1093.36,895.762 1102.41,895.197C1101.44,886.041 1099.95,877.75 1097.7,870.735Z" style="fill:rgb(239,68,68);"/>
    </g>
    <g transform="matrix(0.278595,0,0,0.278595,692.549,779.117)">
        <path d="M1056.29,878.282C1051.08,862.508 1041.75,845.628 1027.6,829.018C1033.22,822.949 1055.3,807.551 1056.63,806.883C1058.78,806.669 1063.04,805.113 1064.58,804.159C1063.96,802.442 1063.32,801.314 1061.82,798.939C1062.3,799.176 1066.46,796.513 1066.3,796.139C1066.76,796.093 1064.73,790.806 1064.01,789.955L1115.2,789.955C1116.27,802.736 1116.15,815.385 1114.81,827.899C1098.92,830.246 1084.69,833.427 1071.48,837.113C1072.95,848.084 1074.21,856.61 1078.36,860.889C1078.8,861.762 1079.28,862.606 1079.78,863.422L1079.77,863.418L1081.63,876.376C1074.1,877.568 1065.72,878.205 1056.27,878.163L1056.29,878.282Z" style="fill:rgb(239,68,68);"/>
    </g>
    <g transform="matrix(0.278595,0,0,0.278595,692.549,779.117)">
        <path d="M1099.25,876.229C1100.67,881.95 1101.68,888.33 1102.41,895.197C1093.36,895.762 1082.84,895.525 1071.43,894.805C1068.38,896.178 1070.11,905.6 1071.83,914.998L1061.45,911.827L1061.44,911.758C1061.89,901.641 1060.29,890.28 1056.29,878.282L1056.27,878.163C1065.72,878.205 1074.1,877.568 1081.63,876.376L1079.77,863.418L1079.78,863.422C1083.02,868.783 1087.33,872.956 1091.15,876.127L1097.7,870.735L1099.25,876.229Z" style="fill:rgb(113,63,18);"/>
    </g>
    <g transform="matrix(0.278595,0,0,0.278595,692.549,779.117)">
        <path d="M811.239,753.568C822.674,757.144 830.754,779.792 824.414,789.955C815.194,782.848 809.062,768.413 811.239,753.568Z" style="fill:rgb(239,68,68);"/>
    </g>
    <g transform="matrix(0.308233,0,0,0.555571,664.913,563.703)">
        <path d="M931.848,756.158C939.985,756.158 946.591,760.993 946.591,766.949C946.591,772.904 939.985,777.739 931.848,777.739C923.712,777.739 917.105,772.904 917.105,766.949C917.105,760.993 923.712,756.158 931.848,756.158" style="fill:rgb(239,68,68);"/>
    </g>
    <g transform="matrix(0.278595,0,0,0.278595,692.549,779.117)">
        <path d="M839.11,658.389C850.157,643.936 861.473,632.978 873.174,627.021C874.026,616.705 872.671,605.695 870.92,594.416C851.755,603.861 843.244,627.376 839.11,658.389Z"/>
    </g>
    <g transform="matrix(0.278595,0,0,0.278595,692.549,779.117)">
        <path d="M1015.18,702.619C1026.27,688.918 1033.89,672.719 1036.62,652.994C1056.34,649.669 1074.43,648.668 1091.15,649.625C1073.46,674.542 1049.21,693.223 1015.18,702.619Z"/>
    </g>
    <g transform="matrix(0.365097,0,0,0.365097,-325.412,624.739)">
        <path d="M667.365,1827.98C708.579,1836.44 723.803,1856.61 725.718,1896.4C727.469,1932.79 696.134,1962.42 659.695,1962.42C623.256,1962.42 592.498,1932.82 593.672,1896.4C595.587,1836.98 633.695,1821.07 667.365,1827.98ZM428.323,1397.43L478.57,1532.98C560.244,1477.27 733.326,1440.36 766.033,1462.87C787.853,1488.18 721.374,1589.97 623.112,1630.47C604.413,1638.18 584.564,1643.67 563.953,1645.99L593.639,1729.86C782.103,1647.08 897.798,1467.54 891.067,1426.64C842.889,1289.84 667.981,1304.85 428.323,1397.43Z" style="stroke:black;stroke-width:32px;"/>
    </g>
</svg>
