<?xml version="1.0" encoding="UTF-8" standalone="no"?>
<!DOCTYPE svg PUBLIC "-//W3C//DTD SVG 1.1//EN" "http://www.w3.org/Graphics/SVG/1.1/DTD/svg11.dtd">
<svg width="100%" height="100%" viewBox="0 0 425 428" version="1.1" xmlns="http://www.w3.org/2000/svg" xmlns:xlink="http://www.w3.org/1999/xlink" xml:space="preserve" xmlns:serif="http://www.serif.com/" style="fill-rule:evenodd;clip-rule:evenodd;stroke-linejoin:round;stroke-miterlimit:2;">
    <g transform="matrix(1,0,0,1,-373.361,-1262.7)">
        <g transform="matrix(1.47258,0,0,1.47258,379.12,-345.679)">
            <path d="M85.025,1250.52C90.998,1275.44 113.442,1293.98 140.182,1293.98C166.922,1293.98 189.367,1275.44 195.34,1250.52L284.259,1250.52C277.581,1324.35 215.576,1382.26 140.182,1382.26C64.788,1382.26 2.784,1324.35 -3.895,1250.52L85.025,1250.52Z" style="fill:white;"/>
        </g>
        <g transform="matrix(1.47258,0,0,1.47258,379.12,-345.679)">
            <path d="M84.977,1224.16L-3.911,1224.16C2.665,1150.24 64.716,1092.22 140.182,1092.22C215.648,1092.22 277.699,1150.24 284.275,1224.16L195.388,1224.16C189.493,1199.14 166.997,1180.5 140.182,1180.5C113.367,1180.5 90.872,1199.14 84.977,1224.16Z" style="fill:rgb(255,68,68);"/>
        </g>
        <g transform="matrix(1.5527,0,0,1.5527,367.888,-444.811)">
            <circle cx="140.182" cy="1237.24" r="32.618" style="fill:white;"/>
        </g>
    </g>
</svg>
