<?xml version="1.0" encoding="UTF-8" standalone="no"?>
<!DOCTYPE svg PUBLIC "-//W3C//DTD SVG 1.1//EN" "http://www.w3.org/Graphics/SVG/1.1/DTD/svg11.dtd">
<svg width="100%" height="100%" viewBox="0 0 274 276" version="1.1" xmlns="http://www.w3.org/2000/svg" xmlns:xlink="http://www.w3.org/1999/xlink" xml:space="preserve" xmlns:serif="http://www.serif.com/" style="fill-rule:evenodd;clip-rule:evenodd;stroke-linejoin:round;stroke-miterlimit:2;">
    <g transform="matrix(1,0,0,1,5.77316e-15,-1087.48)">
        <g transform="matrix(0.948397,0,0,0.948397,3.70873,51.6287)">
            <path d="M185.234,1250.52L284.259,1250.52C277.581,1324.35 215.576,1382.26 140.182,1382.26C64.788,1382.26 2.784,1324.35 -3.895,1250.52L95.13,1250.52C100.843,1270 118.864,1284.23 140.182,1284.23C161.5,1284.23 179.522,1270 185.234,1250.52Z" style="fill:white;"/>
        </g>
        <g transform="matrix(0.948397,0,0,0.948397,3.70873,51.6287)">
            <path d="M95.076,1224.16L-3.911,1224.16C2.665,1150.24 64.716,1092.22 140.182,1092.22C215.648,1092.22 277.699,1150.24 284.275,1224.16L185.288,1224.16C179.649,1204.58 161.576,1190.25 140.182,1190.25C118.789,1190.25 100.715,1204.58 95.076,1224.16Z" style="fill:rgb(239,68,68);"/>
        </g>
        <g transform="matrix(1,0,0,1,-3.52502,-12.2159)">
            <circle cx="140.182" cy="1237.24" r="32.618" style="fill:white;"/>
        </g>
    </g>
</svg>
